<svg id="Layer_1" data-name="Layer 1" xmlns="http://www.w3.org/2000/svg" viewBox="0 0 300 300"><title>Physics-expand</title><rect x="185.15" y="173.2" width="28.47" height="52.65" style="fill:#ffb508"/><path d="M213.62,227.09H185.15a1.25,1.25,0,0,1-1.25-1.25V173.2a1.25,1.25,0,0,1,1.25-1.25h28.47a1.25,1.25,0,0,1,1.25,1.25v52.65A1.25,1.25,0,0,1,213.62,227.09Zm-27.22-2.5h26V174.45h-26Z" style="fill:#333"/><path d="M199.5,131.47l-8,16a16.53,16.53,0,0,0,1.06,16.56l5.45,8.16,6.12-8.91a16.53,16.53,0,0,0,1.77-15.37Z" style="fill:#ffb508"/><path d="M198,173.47h0a1.25,1.25,0,0,1-1-.56l-5.45-8.16A17.82,17.82,0,0,1,190.4,147l8-16a1.25,1.25,0,0,1,2.28.1l6.43,16.47A17.77,17.77,0,0,1,205.18,164l-6.12,8.91A1.25,1.25,0,0,1,198,173.47Zm1.33-38.92-6.72,13.52a15.32,15.32,0,0,0,1,15.3L198,170l5.08-7.39a15.27,15.27,0,0,0,1.64-14.21Z" style="fill:#333"/><path d="M185.15,173.2,187,186a4.81,4.81,0,0,0,7.86,1.6l1.39-1.39,3.4,3.61a4.55,4.55,0,0,0,2.21,1.17,7.18,7.18,0,0,0,8.63-5.73l2.38-12Z" style="fill:#f2f2f2"/><path d="M203.48,192.41a7.89,7.89,0,0,1-2-.25,5.7,5.7,0,0,1-2.81-1.52L196.2,188l-.48.48a6.06,6.06,0,0,1-9.9-2,1.25,1.25,0,0,1-.08-.29l-1.83-12.77a1.25,1.25,0,0,1,1.24-1.43l27.7.08a1.25,1.25,0,0,1,1.22,1.49l-2.38,12a8.74,8.74,0,0,1-3.89,5.67A8.07,8.07,0,0,1,203.48,192.41Zm-7.25-7.48h0a1.25,1.25,0,0,1,.89.39l3.4,3.61a3.35,3.35,0,0,0,1.61.82,5.49,5.49,0,0,0,4.32-.72,6.23,6.23,0,0,0,2.77-4l2.08-10.47-24.73-.07,1.6,11.18a3.56,3.56,0,0,0,5.76,1.06l1.39-1.39A1.25,1.25,0,0,1,196.23,184.93Z" style="fill:#333"/><path d="M197.74,173.76a1.25,1.25,0,0,1-1.16-1.71l1.57-3.91a2.12,2.12,0,0,0-.4-2.2,4.59,4.59,0,0,1-.79-5l2.5-7.89a1.25,1.25,0,1,1,2.38.76l-2.53,8a1.25,1.25,0,0,1-.06.16,2.1,2.1,0,0,0,.34,2.33,4.64,4.64,0,0,1,.87,4.81L198.9,173A1.25,1.25,0,0,1,197.74,173.76Z" style="fill:#333"/><path d="M173.5,280.76H124.38a1.25,1.25,0,1,1,0-2.5H173.5a1.25,1.25,0,0,1,0,2.5Z" style="fill:#333"/><path d="M255.91,261.26h-3.55a1.25,1.25,0,1,1,0-2.5h3.55a1.25,1.25,0,0,1,0,2.5Z" style="fill:#333"/><path d="M246.21,261.26H226.84a1.25,1.25,0,0,1,0-2.5h19.37a1.25,1.25,0,0,1,0,2.5Z" style="fill:#333"/><rect x="184.04" y="240.95" width="30.68" height="46.4" style="fill:#f04698"/><path d="M214.72,288.6H184a1.25,1.25,0,0,1-1.25-1.25V241A1.25,1.25,0,0,1,184,239.7h30.68A1.25,1.25,0,0,1,216,241v46.4A1.25,1.25,0,0,1,214.72,288.6Zm-29.43-2.5h28.18V242.2H185.29Z" style="fill:#333"/><rect x="167.87" y="231.83" width="63.02" height="14.93" style="fill:#f04698"/><path d="M230.89,248h-63a1.25,1.25,0,0,1-1.25-1.25V231.83a1.25,1.25,0,0,1,1.25-1.25h63a1.25,1.25,0,0,1,1.25,1.25v14.93A1.25,1.25,0,0,1,230.89,248Zm-61.77-2.5h60.52V233.08H169.12Z" style="fill:#333"/><path d="M206.72,265.93a1.25,1.25,0,0,1-1.25-1.25v-8.35a1.25,1.25,0,0,1,2.5,0v8.35A1.25,1.25,0,0,1,206.72,265.93Z" style="fill:#333"/><path d="M189.56,205.27a1.25,1.25,0,0,1-1.25-1.25v-8a1.25,1.25,0,0,1,2.5,0v8A1.25,1.25,0,0,1,189.56,205.27Z" style="fill:#333"/><path d="M109.74,16.67h-7a1.25,1.25,0,0,1,0-2.5h7a1.25,1.25,0,0,1,0,2.5Z" style="fill:#333"/><path d="M95.07,30.14h-6a1.25,1.25,0,0,1,0-2.5h6a1.25,1.25,0,0,1,0,2.5Z" style="fill:#333"/><path d="M83.67,43.6H78.41a1.25,1.25,0,0,1,0-2.5h5.26a1.25,1.25,0,0,1,0,2.5Z" style="fill:#333"/><path d="M74.95,57.07H69.33a1.25,1.25,0,0,1,0-2.5h5.62a1.25,1.25,0,1,1,0,2.5Z" style="fill:#333"/><path d="M68.58,70.53h-6a1.25,1.25,0,1,1,0-2.5h6a1.25,1.25,0,0,1,0,2.5Z" style="fill:#333"/><path d="M62.81,84H57.47a1.25,1.25,0,0,1,0-2.5h5.34a1.25,1.25,0,1,1,0,2.5Z" style="fill:#333"/><path d="M59.19,97.46H53.72a1.25,1.25,0,0,1,0-2.5h5.48a1.25,1.25,0,0,1,0,2.5Z" style="fill:#333"/><path d="M56.89,110.92H51a1.25,1.25,0,1,1,0-2.5h5.94a1.25,1.25,0,0,1,0,2.5Z" style="fill:#333"/><path d="M56.74,151.32H50.36a1.25,1.25,0,0,1,0-2.5h6.38a1.25,1.25,0,0,1,0,2.5Z" style="fill:#333"/><path d="M59.15,164.78H52.93a1.25,1.25,0,0,1,0-2.5h6.22a1.25,1.25,0,0,1,0,2.5Z" style="fill:#333"/><path d="M62.59,178.25h-6.5a1.25,1.25,0,0,1,0-2.5h6.5a1.25,1.25,0,0,1,0,2.5Z" style="fill:#333"/><path d="M67.06,191.71H60.83a1.25,1.25,0,0,1,0-2.5h6.23a1.25,1.25,0,1,1,0,2.5Z" style="fill:#333"/><path d="M73.25,205.18H67.74a1.25,1.25,0,0,1,0-2.5h5.51a1.25,1.25,0,0,1,0,2.5Z" style="fill:#333"/><path d="M81.85,218.64H76a1.25,1.25,0,0,1,0-2.5h5.81a1.25,1.25,0,0,1,0,2.5Z" style="fill:#333"/><path d="M92.17,232.1H86.32a1.25,1.25,0,1,1,0-2.5h5.85a1.25,1.25,0,0,1,0,2.5Z" style="fill:#333"/><path d="M105.59,245.57h-5.44a1.25,1.25,0,1,1,0-2.5h5.44a1.25,1.25,0,0,1,0,2.5Z" style="fill:#333"/><path d="M114.17,250.28c-35.08-26-58.1-69.49-58.1-118.82s23-92.85,58.1-118.82" style="fill:#01d2b9"/><path d="M114.17,251.53a1.24,1.24,0,0,1-.74-.25c-36.7-27.16-58.61-72-58.61-119.82S76.73,38.8,113.43,11.64a1.25,1.25,0,1,1,1.49,2C78.85,40.34,57.32,84.38,57.32,131.47s21.53,91.12,57.59,117.81a1.25,1.25,0,0,1-.74,2.25Z" style="fill:#333"/><path d="M56.07,132.72h-12a1.25,1.25,0,0,1,0-2.5h12a1.25,1.25,0,0,1,0,2.5Z" style="fill:#333"/><path d="M199.5,132.72H56.07a1.25,1.25,0,1,1,0-2.5H199.5a1.25,1.25,0,0,1,0,2.5Z" style="fill:#333"/><circle cx="56.09" cy="131.47" r="7.86" style="fill:#e91d29"/><path d="M56.09,140.58a9.11,9.11,0,1,1,9.11-9.11A9.12,9.12,0,0,1,56.09,140.58Zm0-15.73a6.61,6.61,0,1,0,6.61,6.61A6.62,6.62,0,0,0,56.09,124.85Z" style="fill:#333"/><line x1="65.59" y1="184.95" x2="199.5" y2="131.47" style="fill:#65d7fa"/><path d="M65.6,186.2a1.25,1.25,0,0,1-.46-2.41l13.93-5.56a1.25,1.25,0,1,1,.93,2.32l-13.93,5.56A1.25,1.25,0,0,1,65.6,186.2Zm27.86-11.13a1.25,1.25,0,0,1-.46-2.41l13.93-5.56a1.25,1.25,0,1,1,.93,2.32L93.92,175A1.25,1.25,0,0,1,93.46,175.07Zm27.86-11.13a1.25,1.25,0,0,1-.46-2.41L134.78,156a1.25,1.25,0,1,1,.93,2.32l-13.93,5.56A1.25,1.25,0,0,1,121.31,163.94Zm27.86-11.13a1.25,1.25,0,0,1-.46-2.41l13.93-5.56a1.25,1.25,0,1,1,.93,2.32l-13.93,5.56A1.25,1.25,0,0,1,149.17,152.82ZM177,141.69a1.25,1.25,0,0,1-.46-2.41l13.93-5.56a1.25,1.25,0,1,1,.93,2.32L177.5,141.6A1.25,1.25,0,0,1,177,141.69Z" style="fill:#333"/><circle cx="65.59" cy="184.95" r="7.86" style="fill:#ffb508"/><path d="M65.59,194.06a9.11,9.11,0,1,1,9.11-9.11A9.12,9.12,0,0,1,65.59,194.06Zm0-15.73a6.61,6.61,0,1,0,6.61,6.61A6.62,6.62,0,0,0,65.59,178.33Z" style="fill:#333"/><path d="M223.23,197.06a1.25,1.25,0,0,1-1.25-1.25v-9.49a1.25,1.25,0,0,1,2.5,0v9.49A1.25,1.25,0,0,1,223.23,197.06Z" style="fill:#333"/><path d="M230.51,223.08h-7.28a1.25,1.25,0,0,1-1.25-1.25V205.08a1.25,1.25,0,0,1,2.5,0v15.5h6a1.25,1.25,0,0,1,0,2.5Z" style="fill:#333"/></svg>